# xmcd
#
# Track frame offsets:
#	150
#	38156
#	77228
#	117828
#	156515
#	187577
#	226256
#
# Disc length: 3512 seconds
#
# Revision: 0
# Processed by: cddbd v1.4PL0 Copyright (c) Steve Scherf et al.
# Submitted via: dBpowerAMP V4.0
#
DISCID=4b0db607
DTITLE=various artist - Nua Dem Ngoai Pho
DYEAR=1900
DGENRE=Oldies
TTITLE0=Nua Dem Ngoai Pho
TTITLE1=Huong Toc Ma Nou
TTITLE2=Xinh Thoi Gian Qua Mau
TTITLE3=An Nau
TTITLE4=Tinh Doi
TTITLE5=Xa Em Ky Niem
TTITLE6=Khong Bao Gio Quen Anh
EXTD=Vietnamese\nAlbum Nua Dem Ngoai Pho:  Tan Co 5
EXTT0=
EXTT1=
EXTT2=
EXTT3=
EXTT4=
EXTT5=
EXTT6=
PLAYORDER=
